# xmcd
#
# Track frame offsets: 
#        150
#        17820
#        35491
#        36447
#
# Disc length: 495 seconds
#
# Revision: 0
# Processed by: cddbd v1.5.2PL0 Copyright (c) Steve Scherf et al.
# Submitted via: ExactAudioCopy v1.0b1
#
DISCID=2d01ed04
DTITLE=Darius Rucker - Come Back Song promo
DYEAR=2010
DGENRE=Country
TTITLE0=Come Back Song
TTITLE1=Come Back Song
TTITLE2=Research hook 1
TTITLE3=Research hook 2
EXTD=
EXTT0=
EXTT1=
EXTT2=
EXTT3=
PLAYORDER=
